<svg xmlns="http://www.w3.org/2000/svg" xmlns:xlink="http://www.w3.org/1999/xlink" width="150" zoomAndPan="magnify" viewBox="0 0 112.5 112.499997" height="150" preserveAspectRatio="xMidYMid meet" version="1.0"><defs><clipPath id="ded0ef1e39"><path d="M 0 0 L 112.003906 0 L 112.003906 112.003906 L 0 112.003906 Z M 0 0 " clip-rule="nonzero"/></clipPath><clipPath id="da0d73ef29"><path d="M 0.910156 2.035156 L 111 2.035156 L 111 110 L 0.910156 110 Z M 0.910156 2.035156 " clip-rule="nonzero"/></clipPath></defs><g clip-path="url(#ded0ef1e39)"><path fill="#ffffff" d="M 0 0 L 112.003906 0 L 112.003906 112.003906 L 0 112.003906 Z M 0 0 " fill-opacity="1" fill-rule="nonzero"/><path fill="#ffffff" d="M 0 0 L 112.003906 0 L 112.003906 112.003906 L 0 112.003906 Z M 0 0 " fill-opacity="1" fill-rule="nonzero"/></g><g clip-path="url(#da0d73ef29)"><path fill="#000000" d="M 55.835938 2.035156 C 25.464844 2.035156 0.910156 26.769531 0.910156 57.367188 C 0.910156 81.828125 16.644531 102.53125 38.46875 109.859375 C 41.195312 110.410156 42.195312 108.667969 42.195312 107.203125 C 42.195312 105.921875 42.105469 101.523438 42.105469 96.941406 C 26.828125 100.242188 23.644531 90.347656 23.644531 90.347656 C 21.191406 83.933594 17.550781 82.285156 17.550781 82.285156 C 12.550781 78.894531 17.917969 78.894531 17.917969 78.894531 C 23.464844 79.261719 26.375 84.578125 26.375 84.578125 C 31.285156 93.003906 39.195312 90.621094 42.378906 89.15625 C 42.832031 85.582031 44.289062 83.109375 45.835938 81.734375 C 33.648438 80.453125 20.828125 75.691406 20.828125 54.433594 C 20.828125 48.390625 23.007812 43.441406 26.464844 39.59375 C 25.917969 38.222656 24.007812 32.539062 27.011719 24.9375 C 27.011719 24.9375 31.648438 23.472656 42.105469 30.617188 C 46.601562 29.398438 51.179688 28.789062 55.835938 28.785156 C 60.472656 28.785156 65.203125 29.425781 69.566406 30.617188 C 80.027344 23.472656 84.664062 24.9375 84.664062 24.9375 C 87.664062 32.539062 85.753906 38.222656 85.207031 39.59375 C 88.753906 43.441406 90.847656 48.390625 90.847656 54.433594 C 90.847656 75.691406 78.027344 80.359375 65.75 81.734375 C 67.75 83.476562 69.476562 86.773438 69.476562 91.996094 C 69.476562 99.417969 69.386719 105.371094 69.386719 107.203125 C 69.386719 108.667969 70.386719 110.410156 73.113281 109.859375 C 94.9375 102.53125 110.671875 81.828125 110.671875 57.367188 C 110.761719 26.769531 86.117188 2.035156 55.835938 2.035156 Z M 55.835938 2.035156 " fill-opacity="1" fill-rule="evenodd"/></g></svg>