<svg xmlns="http://www.w3.org/2000/svg" xmlns:xlink="http://www.w3.org/1999/xlink" width="150" zoomAndPan="magnify" viewBox="0 0 112.5 112.499997" height="150" preserveAspectRatio="xMidYMid meet" version="1.0"><defs><clipPath id="cb12307e95"><path d="M 0 0 L 112.003906 0 L 112.003906 112.003906 L 0 112.003906 Z M 0 0 " clip-rule="nonzero"/></clipPath></defs><g clip-path="url(#cb12307e95)"><rect x="-11.25" width="135" fill="#fefefe" y="-11.25" height="134.999996" fill-opacity="1"/></g><path fill="#000000" d="M 21.683594 41.605469 L 36.351562 41.605469 L 36.351562 89.996094 L 21.683594 89.996094 Z M 29.136719 17.050781 C 33.867188 17.050781 37.703125 20.882812 37.703125 25.613281 C 37.703125 30.339844 33.867188 34.171875 29.136719 34.171875 C 24.410156 34.171875 20.574219 30.339844 20.574219 25.613281 C 20.574219 20.882812 24.410156 17.050781 29.136719 17.050781 Z M 58.902344 48.1875 C 68.386719 35.699219 93.640625 36.960938 93.640625 60.617188 C 93.640625 89.742188 93.640625 90.027344 93.640625 90.027344 L 78.832031 90.027344 L 78.871094 64.117188 C 78.871094 48.488281 60.269531 51.644531 59.621094 63.484375 L 59.621094 89.996094 L 44.953125 89.996094 L 44.953125 41.605469 L 58.902344 41.605469 L 58.902344 48.1875 " fill-opacity="1" fill-rule="evenodd"/></svg>