<svg xmlns="http://www.w3.org/2000/svg" xmlns:xlink="http://www.w3.org/1999/xlink" aria-hidden="true" role="img" class="iconify iconify--logos" width="1080" zoomAndPan="magnify" viewBox="0 0 810 809.999993" height="1080" preserveAspectRatio="xMidYMid meet" version="1.0"><defs><g/></defs><g fill="#000000" fill-opacity="1"><g transform="translate(0.0000035, 650.38804)"><g><path d="M 161.515625 6.625 C 122.398438 6.625 89.90625 -0.785156 64.03125 -15.609375 C 38.164062 -30.441406 19.347656 -50.367188 7.578125 -75.390625 L 59 -137.859375 L 66.875 -137.859375 C 75.289062 -117.671875 87.226562 -101.738281 102.6875 -90.0625 C 118.144531 -78.394531 136.070312 -72.5625 156.46875 -72.5625 C 179.394531 -72.5625 196.429688 -79.238281 207.578125 -92.59375 C 218.722656 -105.945312 224.296875 -127.660156 224.296875 -157.734375 L 224.296875 -461.21875 L 315.15625 -461.21875 L 315.15625 -156.15625 C 315.15625 -100.425781 302.484375 -59.363281 277.140625 -32.96875 C 251.796875 -6.570312 213.253906 6.625 161.515625 6.625 Z M 161.515625 6.625 "/></g></g><g transform="translate(372.255984, 650.38804)"><g><path d="M 59.9375 0 L 59.9375 -461.21875 L 151.109375 -461.21875 L 151.109375 -272.875 L 161.203125 -272.875 L 315.15625 -461.21875 L 408.53125 -461.21875 L 408.53125 -453.328125 L 238.8125 -243.546875 L 426.203125 -7.890625 L 426.203125 0 L 323.046875 0 L 161.203125 -199.0625 L 151.109375 -199.0625 L 151.109375 0 Z M 59.9375 0 "/></g></g></g></svg>